<svg xmlns="http://www.w3.org/2000/svg" viewBox="0 0 24 24">
  <path fill="#f59e0b" d="M6.05 7.05 7.46 5.64 4.64 2.81 3.22 4.22l2.83 2.83ZM1 13h2v-2H1v2Zm10-10h2V1h-2v2Zm9.78 1.22-1.41-1.41-2.83 2.83 1.41 1.41 2.83-2.83ZM17 13h2v-2h-2v2Zm-5 2c2.21 0 4-1.79 4-4s-1.79-4-4-4-4 1.79-4 4 1.79 4 4 4Zm0-6c1.1 0 2 .9 2 2s-.9 2-2 2-2-.9-2-2 .9-2 2-2ZM3.22 17.78l1.41 1.41 2.83-2.83-1.41-1.41-2.83 2.83ZM11 23h2v-2h-2v2Zm6.36-3.81 1.41-1.41-2.83-2.83-1.41 1.41 2.83 2.83ZM3 23h18v-6H3v6Zm2-4h14v2H5v-2Z"/>
</svg>
